<svg version="1" xmlns="http://www.w3.org/2000/svg" width="533.333" height="533.333" viewBox="0 0 400.000000 400.000000"><path d="M184 17.1c-9.4 2.4-16.1 5.7-24 11.9-9.8 7.6-17.4 18.4-21.6 30.6-2.3 6.6-2.8 9.7-2.8 18.9-.1 12.3.4 15.7 3.5 24.2 4.3 11.3 11.8 21.4 21.2 28.6 7.4 5.6 8.8 7.2 11.8 13.3 2.4 4.7 3.3 8 3.3 11.9.1 5.9-.8 7.4-4.4 7.6-2.6.2-25.8-1-32-1.6-1.9-.2-7.7-.7-12.8-1-5.1-.3-10-.8-11-.9-2.2-.5-10.2-1.4-16.7-2.1-2.7-.3-6.1-.7-7.5-1-1.4-.2-4.2-.7-6.2-1-8.9-1.2-11.9-1.8-22.8-4.1-25.9-5.5-45.6-13.5-54.2-22-2.6-2.6-5-5.5-5.3-6.5-.4-1.1-1-1.9-1.5-1.9-1.1 0 1.4 12.4 3.6 18 6.5 16.3 19.5 30.5 37 40.5l7.9 4.5H-.1l4.5 5.8c11.8 15.2 32.2 33.3 54.2 48 17.2 11.5 32.6 19.8 53.9 28.7 7.5 3.1 24 8.4 33 10.6 9 2.1 10.1 2.3 16.3 3.5l3.3.6-.6 6.2c-.5 5.4-1.4 10.9-3.1 19.6-4.6 23.5-17 56.4-26.8 70.9-2 2.9-3.6 5.5-3.6 5.7 0 .2 1.9-.5 4.3-1.5 4.1-1.8 19.2-6.7 23.2-7.6 22.2-4.8 27.7-5.4 45.5-5 19.6.4 30.4 2.4 54.5 10.3 4.4 1.4 8.6 3 9.3 3.5 2 1.5 1.4.2-2.4-5.4-4.1-6.1-8.4-14.4-11.5-22.2-5.2-12.7-11.7-32.6-13.4-40.5-.2-.9-1-4.6-1.8-8.2-1.6-6.6-2.3-11.4-3.3-20.5l-.5-5.1 12.4-2.7c11.9-2.6 28.9-7.5 35.2-10.2 1.7-.7 5.5-2.3 8.5-3.5 20.3-8.3 48-24.2 64-36.7 15.1-11.8 30.5-26.1 37.8-35.2 2.1-2.5 4.5-5.5 5.5-6.6 1.8-2 1.8-2-23-2.5l-24.7-.5 4-1.8c5.9-2.7 15.6-9.5 21.9-15.5 12.2-11.5 19.1-23.9 22.4-40 1.5-7.1 1.4-8.3-.4-4.7-6.6 13.1-27.6 23.2-63.5 30.5-8 1.6-16.7 3.2-19.5 3.5-2.7.4-5.7.8-6.5 1-.8.2-4.2.7-7.5 1-3.3.3-7.6.8-9.5 1-3.2.4-5.9.7-17.2 2-2.4.2-9.2.7-15.3 1-6 .4-12.6.8-14.5 1-1.9.2-6.6.5-10.4.6-8.7.2-10-1-9.3-8.9 1-9.3 5.8-17.4 14-23.6 9.1-6.7 18.2-19 21.8-29.4.8-2.5 2.2-4.9 3-5.3 1.2-.7 14.5-5 45.9-14.7 9-2.8 11-3.7 8.2-3.9-.9 0-11.4-2.4-23.2-5.3-11.8-2.9-23.7-5.7-26.4-6.4-4.7-1.1-5-1.3-6.6-6.1-6.5-19.1-20.1-33.6-38-40.8-8.8-3.5-10.8-3.9-22.5-4.2-7.4-.2-11.9.2-17.5 1.6z"/></svg>